<svg width="170px" height="89px" viewBox="0 0 170 89" version="1.1" xmlns="http://www.w3.org/2000/svg" xmlns:xlink="http://www.w3.org/1999/xlink" class="icon-logo-white">
    <title>footer-logo</title>
    <defs>
        <polygon id="footer-logo-path-1" points="0.625101183 0.721594044 21.5318498 0.721594044 21.5318498 17.0237256 0.625101183 17.0237256"></polygon>
        <polygon id="footer-logo-path-3" points="0.000324406916 0.607454032 169.668061 0.607454032 169.668061 21.5030665 0.000324406916 21.5030665"></polygon>
    </defs>
    <g id="footer-logo-symbols" stroke="none" stroke-width="1" fill="none" fill-rule="evenodd">
        <g id="Mobile-footer--opened" transform="translate(-103.000000, -374.000000)">
            <g id="footer-logo" transform="translate(103.000000, 374.000000)">
                <g id="footer-logo-Group-3" transform="translate(70.112994, 0.000000)">
                    <mask id="footer-logo-mask-2" fill="white">
                        <use xlink:href="#footer-logo-path-1"></use>
                    </mask>
                    <g id="footer-logo-Clip-2"></g>
                    <path d="M18.7809608,3.19715542 C18.9888768,3.03945606 19.1520109,2.95343823 19.2687638,2.93113731 C19.4878753,2.89927885 19.4622856,3.12865974 19.1903954,3.61927997 L16.0604596,9.1945099 C14.9393124,11.1267253 14.5682623,12.7801792 14.9441105,14.1580575 C14.9968891,14.3141639 15.0544659,14.4702703 15.1184401,14.6279697 C15.3311541,15.0915102 15.6318327,15.4801834 16.0076809,15.8099184 C16.7289896,15.67452 16.6634161,15.2332804 16.4922852,14.8939878 C16.2235937,14.6088546 16.0188764,14.2823054 15.9037229,13.8920393 C15.8301526,13.6499151 15.7933675,13.3870828 15.7933675,13.1003567 C15.7933675,12.8136306 15.8269539,12.495046 15.8957261,12.144603 C15.9644983,11.7957529 16.0844499,11.4118585 16.2571801,10.9945127 C16.4299104,10.5771669 16.6474225,10.1391131 16.9097166,9.67875844 L20.7465669,2.86901332 L21.4214943,1.69502919 C21.5686349,1.49591383 21.5686349,1.2983914 21.4214943,1.09927605 C21.3271324,0.982992682 21.1959854,0.920868691 21.0280532,0.909718231 C20.9544829,0.909718231 20.8761146,0.932019151 20.7929482,0.973435145 C20.3435297,1.14069204 19.8653228,1.36688708 19.3615263,1.64564858 C16.7833676,3.12865974 14.2947727,5.69007966 11.8941423,9.33628003 C11.7693927,9.501944 11.6638353,9.61663445 11.5806689,9.67875844 C11.4127367,9.78389135 11.377551,9.62300614 11.4703135,9.1945099 C11.8365656,7.41043632 12.1164525,6.17273528 12.3035769,5.48459261 C12.565871,4.48105123 12.8425593,3.71326242 13.1368404,3.18122619 C13.3783429,2.74317241 13.6550311,2.42458785 13.9701039,2.22547249 C14.2835772,2.11078205 14.5730603,1.90210916 14.6866145,1.60423259 C14.7857744,1.1375062 14.5778584,0.900160694 14.5362752,0.879452697 C13.5798615,0.0973275852 11.4175348,2.46918969 11.4175348,2.46918969 C11.0192956,2.92954439 10.4259353,3.68299689 9.81818076,4.74866226 L6.06289748,11.400708 C5.07769539,12.9872592 4.22843839,14.1309778 3.51512649,14.8318638 C2.73943978,15.5614225 1.92856728,15.962839 1.07931029,16.0361135 C1.07931029,16.0361135 0.570715702,16.1539898 0.629891801,16.54107 C0.669875652,16.7959377 0.733849814,17.0237256 1.14168509,17.0237256 C1.42317141,17.0237256 3.23843824,16.4439017 4.19165325,15.5359357 C4.95614448,14.7936337 5.86297822,13.5877911 6.91055512,11.9184079 L6.91055512,11.8865495 L10.6690371,5.23291081 C10.8785525,4.85698102 11.0768724,4.52246722 11.2655962,4.23096234 C11.3599581,4.08441344 11.4543199,3.99520976 11.5486818,3.96335131 C11.6750308,3.93308577 11.689425,4.06370544 11.5950631,4.35680325 C11.5214928,4.61644967 11.4399258,4.90795455 11.3439645,5.23291081 C11.1552407,5.94335439 10.8737544,7.2065422 10.4947075,9.02088131 C10.1284554,10.8161053 9.81818076,12.2306208 9.56708218,13.2644277 C9.55748605,13.3074367 9.55268799,13.3536314 9.55268799,13.4061979 L9.55268799,13.4221271 L9.55268799,13.4380563 L9.55268799,13.5161095 C9.5942712,13.7454904 9.72541823,13.8761101 9.94612909,13.9063756 C9.96532133,13.9175261 9.98611294,13.9223049 10.0085039,13.9223049 C10.2500064,13.9318624 10.4115411,13.8299153 10.4947075,13.610092 C13.0744656,8.76601365 15.8349507,5.29344187 18.7809608,3.19715542" id="footer-logo-Fill-1" fill="#FFFFFF" mask="url(#footer-logo-mask-2)"></path>
                </g>
                <path d="M97.9062233,13.7137381 C96.819622,15.5589354 95.7148002,16.8807676 94.5453787,17.8251731 C93.3743007,18.7980953 92.1419358,19.3717839 90.8797556,19.7072743 C90.4109931,19.858245 89.9240102,19.9521823 89.4353709,20.0192804 L89.0196134,20.8781359 C88.5392561,21.8611228 88.0522732,22.8692715 87.3830858,23.6190926 C86.650955,24.4662059 85.7432454,24.9761513 84.4794088,24.8671169 C84.2707018,24.8419551 84.0851845,24.8184708 83.9062928,24.7681472 C83.0747778,24.5819501 82.4850978,24.1692968 82.1140632,23.6778034 C81.7479978,23.1628256 81.6038906,22.5455232 81.6453007,21.9483503 C81.658552,21.8191865 81.6734596,21.6900227 81.6850544,21.5876981 C82.1720373,19.3801712 84.0951229,19.2862339 86.581386,19.1587475 C87.2522298,19.1151338 87.9446069,19.0983592 88.6717685,19.0060994 C88.948388,18.4424755 89.6921136,16.8656705 89.9654203,16.3003692 C89.3310174,16.7415391 88.6021995,16.7868303 87.8700687,16.692893 L87.8419098,16.6895381 L87.8170637,16.6861832 C87.1081226,16.5972782 86.6708319,16.2282388 86.4058071,15.7518424 C86.1904746,15.3073176 86.0496802,14.8594379 86.200413,14.2891042 C86.200413,14.2891042 86.7867802,12.6099746 87.1031534,11.9205418 C87.2737631,11.5783416 87.6232644,10.8385853 88.1019653,9.90592191 C88.6817069,8.7551898 88.9517008,8.2335022 89.5993549,6.98380041 C89.7351801,6.71373063 90.0631482,6.62482567 90.3414241,6.76405419 C90.6180437,6.90328271 90.7141152,7.23206332 90.5766336,7.4987782 C89.8594104,8.92125755 89.5844473,9.46978438 89.10409,10.4276095 C88.6601736,11.3099493 88.2874826,12.0178341 88.1135601,12.388551 C87.8087817,13.1199201 87.3234552,14.433365 87.3234552,14.433365 C87.2108197,14.7923398 87.2820451,15.0540223 87.4162139,15.2804783 C87.5040033,15.4465461 87.674613,15.5740324 87.9628273,15.6109364 L87.9909862,15.6159688 C89.6142626,15.8222954 90.7290228,14.4165905 91.8073421,12.6250717 L91.843783,12.5495864 C91.8719419,12.5277795 91.8719419,12.5277795 91.8752547,12.5009403 C92.0110798,12.2308705 92.1783767,11.9389938 92.3158583,11.6706015 C93.0695223,10.1491525 93.8066223,8.79880355 94.3863638,7.67155576 L94.4145227,7.65142634 L94.4161791,7.6245871 C94.5536607,7.35619477 94.886598,7.24212803 95.1582483,7.40484088 C95.4348679,7.54574686 95.5590982,7.87452746 95.4216166,8.1462747 L95.3918013,8.16640412 L95.3884885,8.1915659 C94.7888701,9.29029701 94.0782726,10.6423234 93.2964497,12.1604175 C92.744867,13.2658584 92.1634691,14.4434298 91.4760612,15.817263 C90.9940475,16.7985725 90.5103774,17.7815594 90.0250509,18.7880306 C90.2188502,18.7343521 90.4076803,18.7075129 90.5716644,18.6504795 C91.696363,18.3518931 92.7647439,17.8352378 93.8182171,16.9763824 C94.8965364,16.1242367 95.9384148,14.8980193 96.9289447,13.1735985 C97.0680827,12.9035288 97.4208968,12.8163013 97.6693575,12.9806916 C97.9476334,13.1199201 98.0387357,13.4705076 97.9062233,13.7137381 L97.9062233,13.7137381 Z M88.1185294,20.1668962 C87.6067004,20.2038002 87.1279995,20.2205747 86.6443294,20.262511 C84.6417364,20.348061 83.0896854,20.4386434 82.7733122,21.8309287 C82.7650301,21.9097689 82.7567481,21.9869317 82.7468097,22.065772 C82.7352149,22.4012624 82.8031274,22.7484949 83.010178,23.0370167 C83.2404182,23.3523777 83.5866068,23.5805112 84.1315638,23.7012877 C84.259107,23.743224 84.4164654,23.761676 84.5738238,23.7834829 C85.4152773,23.865678 86.044711,23.4748317 86.5333503,22.9095303 C87.1130919,22.255324 87.5619775,21.3193058 88.0108631,20.4101268 L88.1185294,20.1668962 Z" id="footer-logo-Fill-4" fill="#FFFFFF"></path>
                <g id="footer-logo-Group-8" transform="translate(0.000000, 34.451613)">
                    <mask id="footer-logo-mask-4" fill="white">
                        <use xlink:href="#footer-logo-path-3"></use>
                    </mask>
                    <g id="footer-logo-Clip-7"></g>
                    <path d="M8.43814828,1.08772361 L0.0441193405,1.08772361 C-0.0142739043,1.08772361 -0.0142739043,1.53846206 0.0441193405,1.53846206 L2.56800514,1.53846206 C2.62639839,1.53846206 2.68479163,1.56488466 2.68479163,1.64881526 L2.68479163,20.4632596 C2.68479163,20.5487445 2.62639839,20.5767213 2.56800514,20.5767213 L0.0441193405,20.5767213 C-0.0142739043,20.5767213 -0.0142739043,21.0259055 0.0441193405,21.0259055 L9.05452142,21.0259055 C9.11291466,21.0259055 9.11291466,20.5767213 9.05452142,20.5767213 L6.55983224,20.5767213 C6.47224237,20.5767213 6.41222709,20.5487445 6.41222709,20.4632596 L6.41222709,12.5893253 C7.17620538,12.7867176 7.90936501,12.926602 9.08371804,12.926602 C13.5443131,12.926602 16.2741973,10.6200645 16.2741973,7.21776644 C16.2741973,3.78749146 13.5151165,1.08772361 8.43814828,1.08772361 Z M9.08371804,12.4774178 C7.88016838,12.4774178 7.23459862,12.3919329 6.41222709,12.0266793 L6.41222709,1.64881526 C6.41222709,1.56488466 6.47224237,1.53846206 6.55983224,1.53846206 L8.43814828,1.53846206 C11.0788206,1.53846206 12.6343517,3.13936066 12.6343517,7.21776644 C12.6343517,11.2666411 11.7243903,12.4774178 9.08371804,12.4774178 Z M29.4224096,0.607454032 C24.0810497,0.607454032 20.2060091,5.47387494 20.2060091,11.070803 C20.2060091,16.8355922 24.3454414,21.5030665 29.4224096,21.5030665 C34.5577711,21.5030665 38.6680067,16.8355922 38.6680067,11.070803 C38.6680067,5.27803686 34.5577711,0.607454032 29.4224096,0.607454032 Z M32.679455,20.0125211 C31.8003123,20.8300674 30.7135491,21.0834135 29.4224096,21.0834135 C28.1312701,21.0834135 27.0753256,20.8300674 26.2237574,20.0125211 C24.845028,18.6913912 24.1978362,16.5822462 24.1978362,11.070803 C24.1978362,6.26189008 24.845028,3.42068362 26.2237574,2.09955371 C27.0753256,1.31153857 28.1312701,1.05819248 29.4224096,1.05819248 C30.7135491,1.05819248 31.8003123,1.31153857 32.679455,2.09955371 C34.0306098,3.42068362 34.6761796,6.26189008 34.6761796,11.070803 C34.6761796,16.5822462 34.0306098,18.6913912 32.679455,20.0125211 Z M52.3741989,0.607454032 C47.032839,0.607454032 43.1577984,5.47387494 43.1577984,11.070803 C43.1577984,16.8355922 47.2956086,21.5030665 52.3741989,21.5030665 C57.5095604,21.5030665 61.6181739,16.8355922 61.6181739,11.070803 C61.6181739,5.27803686 57.5095604,0.607454032 52.3741989,0.607454032 Z M55.6312443,20.0125211 C54.7521016,20.8300674 53.6653384,21.0834135 52.3741989,21.0834135 C51.0830594,21.0834135 50.0254928,20.8300674 49.1755467,20.0125211 C47.7951953,18.6913912 47.1496255,16.5822462 47.1496255,11.070803 C47.1496255,6.26189008 47.7951953,3.42068362 49.1755467,2.09955371 C50.0254928,1.31153857 51.0830594,1.05819248 52.3741989,1.05819248 C53.6653384,1.05819248 54.7521016,1.31153857 55.6312443,2.09955371 C56.9823991,3.42068362 57.6279689,6.26189008 57.6279689,11.070803 C57.6279689,16.5822462 56.9823991,18.6913912 55.6312443,20.0125211 Z M78.4354284,1.53846206 C78.4954437,1.53846206 78.4954437,1.08772361 78.4354284,1.08772361 L69.4250264,1.08772361 C69.3666331,1.08772361 69.3666331,1.53846206 69.4250264,1.53846206 L71.9489122,1.53846206 C72.036502,1.53846206 72.0965173,1.56488466 72.0965173,1.64881526 L72.0965173,18.7768761 C72.0965173,20.3233752 71.4801442,21.0834135 70.0722182,21.0834135 C69.1314381,21.0834135 68.1338868,20.2674215 68.1338868,19.3659446 C68.1338868,18.1302996 69.455845,18.4955531 69.455845,16.8355922 C69.455845,15.6823235 68.516687,14.696916 67.4007272,14.696916 C66.3447827,14.696916 65.141233,15.6559009 65.141233,17.2008458 C65.141233,19.3099909 67.4883171,21.5030665 70.0722182,21.5030665 C73.5644586,21.5030665 75.7655595,19.5913138 75.7655595,16.3289001 L75.7655595,1.64881526 C75.7655595,1.56488466 75.8239528,1.53846206 75.9423613,1.53846206 L78.4354284,1.53846206 Z M99.8316866,21.0259055 C99.8900798,21.0259055 99.8900798,20.5767213 99.8316866,20.5767213 L97.366194,20.5767213 C97.2477855,20.5767213 97.1601956,20.5207676 97.132621,20.4927907 L89.6177348,0.69293891 C89.5885382,0.607454032 89.1781634,0.607454032 89.1489668,0.69293891 L82.3380436,19.3954757 C81.9584875,20.4927907 81.8984723,20.5767213 81.6340806,20.5767213 L79.4346017,20.5767213 C79.3745865,20.5767213 79.3745865,21.0259055 79.4346017,21.0259055 L84.980338,21.0259055 C85.0695499,21.0259055 85.0695499,20.5767213 84.980338,20.5767213 L82.5456641,20.5767213 C82.3980589,20.5767213 82.4272555,20.4073058 82.779237,19.3954757 L84.5991598,14.4451242 L91.0564795,14.4451242 L93.1991872,20.4927907 C93.2283838,20.5207676 93.1683685,20.5767213 93.0807786,20.5767213 L90.5276962,20.5767213 C90.469303,20.5767213 90.469303,21.0259055 90.5276962,21.0259055 L99.8316866,21.0259055 Z M90.9088743,13.9959401 L84.7451429,13.9959401 L87.8578273,5.33243633 L90.9088743,13.9959401 Z M117.881687,10.3946953 C120.25959,10.3946953 123.018671,8.39901201 123.018671,5.69924417 C123.018671,2.57826902 120.024395,1.08772361 116.442943,1.08772361 L108.284109,1.08772361 C108.194897,1.08772361 108.194897,1.53846206 108.284109,1.53846206 L110.778798,1.53846206 C110.866388,1.53846206 110.926403,1.56488466 110.926403,1.64881526 L110.926403,20.4632596 C110.926403,20.5487445 110.866388,20.5767213 110.778798,20.5767213 L108.284109,20.5767213 C108.194897,20.5767213 108.194897,21.0259055 108.284109,21.0259055 L117.792475,21.0259055 C122.223874,21.0259055 124.426597,18.4100683 124.426597,15.7382773 C124.426597,12.3919329 121.403124,10.3946953 117.881687,10.3946953 Z M116.911711,10.1708804 L114.624642,10.1708804 L114.624642,1.64881526 C114.624642,1.56488466 114.681413,1.53846206 114.799822,1.53846206 L115.972553,1.53846206 C118.762452,1.53846206 119.643217,2.49278414 119.643217,5.81115164 C119.643217,9.27095776 118.96845,10.1708804 116.911711,10.1708804 Z M117.030119,20.5767213 L114.799822,20.5767213 C114.681413,20.5767213 114.624642,20.5487445 114.624642,20.4632596 L114.624642,10.5936419 L116.619744,10.5936419 C119.466415,10.5936419 120.786751,11.4065254 120.786751,15.909247 C120.786751,19.5913138 119.672414,20.5767213 117.030119,20.5767213 Z M137.957609,0.607454032 C132.614627,0.607454032 128.739587,5.47387494 128.739587,11.070803 C128.739587,16.8355922 132.879019,21.5030665 137.957609,21.5030665 C143.092971,21.5030665 147.201584,16.8355922 147.201584,11.070803 C147.201584,5.27803686 143.092971,0.607454032 137.957609,0.607454032 Z M141.214655,20.0125211 C140.332268,20.8300674 139.247127,21.0834135 137.957609,21.0834135 C136.664848,21.0834135 135.608903,20.8300674 134.757335,20.0125211 C133.376984,18.6913912 132.733036,16.5822462 132.733036,11.070803 C132.733036,6.26189008 133.376984,3.42068362 134.757335,2.09955371 C135.608903,1.31153857 136.664848,1.05819248 137.957609,1.05819248 C139.247127,1.05819248 140.332268,1.31153857 141.214655,2.09955371 C142.564187,3.42068362 143.209757,6.26189008 143.209757,11.070803 C143.209757,16.5822462 142.564187,18.6913912 141.214655,20.0125211 Z M169.62459,21.0259055 C169.682984,21.0259055 169.682984,20.5767213 169.62459,20.5767213 L166.894706,20.5767213 C166.77792,20.5767213 166.659511,20.5207676 166.630315,20.4927907 L160.23301,9.24298089 L164.164822,2.71815336 C164.812014,1.64881526 165.01639,1.53846206 165.10398,1.53846206 L167.717078,1.53846206 C167.775471,1.53846206 167.775471,1.08772361 167.717078,1.08772361 L161.817738,1.08772361 C161.759345,1.08772361 161.759345,1.53846206 161.817738,1.53846206 L164.077232,1.53846206 C164.400017,1.53846206 164.37082,1.62083839 163.696054,2.71815336 L159.997815,8.79379672 L155.947595,1.64881526 C155.947595,1.59286152 155.947595,1.53846206 156.066003,1.53846206 L158.735872,1.53846206 C158.794265,1.53846206 158.794265,1.08772361 158.735872,1.08772361 L148.963114,1.08772361 C148.903099,1.08772361 148.903099,1.53846206 148.963114,1.53846206 L151.720573,1.53846206 C151.809785,1.53846206 151.926571,1.59286152 151.955768,1.64881526 L157.825911,11.886795 L153.277726,19.3954757 C152.659731,20.4927907 152.396961,20.5767213 152.336946,20.5767213 L149.72547,20.5767213 C149.667077,20.5767213 149.667077,21.0259055 149.72547,21.0259055 L155.62481,21.0259055 C155.683203,21.0259055 155.683203,20.5767213 155.62481,20.5767213 L153.336119,20.5767213 C153.070105,20.5767213 153.100924,20.4927907 153.77569,19.3954757 L158.061106,12.3655103 L162.640109,20.4927907 C162.667684,20.5207676 162.640109,20.5767213 162.550898,20.5767213 L159.851832,20.5767213 C159.791817,20.5767213 159.791817,21.0259055 159.851832,21.0259055 L169.62459,21.0259055 Z" id="footer-logo-Fill-6" fill="#FFFFFF" mask="url(#footer-logo-mask-4)"></path>
                </g>
                <path d="M22.575334,83.8720365 L23.826242,83.8720365 L23.826242,76.4386514 L26.2320845,76.4386514 L26.2320845,75.2608628 L20.1694915,75.2608628 L20.1694915,76.4386514 L22.575334,76.4386514 L22.575334,83.8720365 Z M28.7794471,83.8720365 L30.0433684,83.8720365 L30.0433684,81.0858142 L33.9376125,81.0858142 L33.9376125,83.8720365 L35.1999071,83.8720365 L35.1999071,75.2608628 L33.9376125,75.2608628 L33.9376125,79.8959192 L30.0433684,79.8959192 L30.0433684,75.2608628 L28.7794471,75.2608628 L28.7794471,83.8720365 Z M38.3442571,83.8720365 L43.6585826,83.8720365 L43.6585826,82.694248 L39.6081784,82.694248 L39.6081784,80.9353478 L43.0502086,80.9353478 L43.0502086,79.7817723 L39.6081784,79.7817723 L39.6081784,76.4386514 L43.4910357,76.4386514 L43.4910357,75.2608628 L38.3442571,75.2608628 L38.3442571,83.8720365 Z M49.8155223,83.8720365 L51.0306436,83.8720365 L51.4958707,82.6579285 L55.1997946,82.6579285 L55.6650217,83.8720365 L56.9728631,83.8720365 L53.4250994,75.1726584 L53.2819526,75.1726584 L49.8155223,83.8720365 Z M51.9236845,81.5302954 L52.9354722,78.844384 C53.1388057,78.3376409 53.3291259,77.5662845 53.3291259,77.5662845 C53.3291259,77.5662845 53.5308328,78.3376409 53.7341664,78.844384 L54.7459541,81.5302954 L51.9236845,81.5302954 Z M63.3819364,81.2137971 C64.4425242,80.7191605 65.0020981,79.8059852 65.0020981,78.4777303 C65.0020981,76.5009133 63.7511901,75.2608628 61.5128944,75.2608628 L59.4876923,75.2608628 L59.4876923,83.8720365 L60.749987,83.8720365 L60.749987,81.6565488 L61.5128944,81.6565488 C61.7390013,81.6565488 61.9651082,81.6306063 62.1912151,81.6046638 L63.6454567,83.8720365 L65.0980715,83.8720365 L63.3819364,81.2137971 Z M60.749987,80.5029732 L60.749987,76.4386514 L61.4640944,76.4386514 C63.0484694,76.4386514 63.7154034,77.1857948 63.7154034,78.4777303 C63.7154034,79.7558298 63.0728694,80.5029732 61.4640944,80.5029732 L60.749987,80.5029732 Z M69.5762895,83.8720365 L70.8271974,83.8720365 L70.8271974,76.4386514 L73.2330399,76.4386514 L73.2330399,75.2608628 L67.170447,75.2608628 L67.170447,76.4386514 L69.5762895,76.4386514 L69.5762895,83.8720365 Z M83.2516903,76.8070346 C81.1988349,76.8070346 79.3460596,78.9533424 79.3460596,81.3002721 C79.3460596,82.9121648 80.3708607,84.0173144 81.7502755,84.0173144 C83.8031309,84.0173144 85.6412662,81.8537116 85.6412662,79.5413719 C85.6412662,77.9277497 84.6294784,76.8070346 83.2516903,76.8070346 Z M83.3281438,82.5697241 C82.9458767,83.270171 82.4855295,83.6454722 81.7795555,83.6454722 C80.8913946,83.6454722 80.678301,83.0436067 80.678301,82.2445783 C80.678301,81.3815585 81.320835,78.9066459 81.659182,78.2701904 C82.0251824,77.5697435 82.4708895,77.1961718 83.2207836,77.1961718 C84.0796645,77.1961718 84.3073981,77.8136028 84.3073981,78.5953362 C84.3073981,79.458356 83.6648641,81.9177031 83.3281438,82.5697241 Z M94.2479684,71.7741935 C92.6245534,71.7741935 91.2451386,73.4518072 90.5261512,75.8782938 C90.4025244,76.1878741 90.3732444,76.3833074 90.2496176,76.7880101 L88.688016,76.7880101 C88.6571093,76.7880101 88.5188425,77.1633113 88.5497492,77.1633113 L90.1422575,77.1633113 C89.4834568,79.6555188 88.7937494,83.2044501 88.1349487,85.4199378 C87.3395079,88.0089973 87.0174276,88.6108628 86.2528935,88.6108628 C85.9308131,88.6108628 85.6087328,88.4327244 85.6087328,88.0885542 C85.6087328,87.8118344 85.9145464,87.4866887 85.9145464,87.113117 C85.9145464,86.7551108 85.7160929,86.495686 85.2411057,86.495686 C84.8295586,86.495686 84.4781983,86.8536922 84.4781983,87.4226972 C84.4781983,88.2528566 85.2720124,89 86.1601734,89 C87.8763085,89 88.9011095,87.2428294 89.6819104,84.7834823 C90.2187109,83.0090167 90.9702317,79.7523708 91.6290324,77.1633113 L93.4362609,77.1633113 C93.4509009,77.1633113 93.558261,76.7880101 93.5273543,76.7880101 L91.7347658,76.7880101 C91.7965792,76.5458803 91.9950328,75.8143024 92.0568461,75.601574 C92.9450071,72.6026234 93.558261,72.1633307 94.1406083,72.1633307 C94.5846888,72.1633307 94.7977823,72.4089195 94.7977823,72.8015157 C94.7977823,73.076506 94.5082354,73.4189468 94.5082354,73.8253789 C94.5082354,74.1522542 94.6904222,74.3961135 95.1816761,74.3961135 C95.6094898,74.3961135 95.9478369,74.0536728 95.9478369,73.5002332 C95.9478369,72.7184998 95.427303,71.7741935 94.2479684,71.7741935 Z M106.327608,82.8844928 L106.327608,79.527536 L102.992938,79.527536 L102.992938,80.7053245 L105.172673,80.7053245 L105.172673,82.2255538 C104.720459,82.5558881 104.004725,82.7824524 103.170244,82.7824524 C101.336989,82.7824524 100.146268,81.4023125 100.146268,79.5673144 C100.146268,77.7305869 101.325602,76.3608239 103.017338,76.3608239 C103.981952,76.3608239 104.577312,76.6928877 105.040913,77.2100078 L105.886781,76.312398 C105.231233,75.5272056 104.255232,75.1588224 103.017338,75.1588224 C100.611495,75.1588224 98.8595732,76.9955499 98.8595732,79.5673144 C98.8595732,82.1373494 100.645655,83.9844539 103.170244,83.9844539 C104.684673,83.9844539 105.80382,83.3912359 106.327608,82.8844928 Z M109.294651,83.8720365 L110.545559,83.8720365 L110.545559,75.2608628 L109.294651,75.2608628 L109.294651,83.8720365 Z M113.724069,83.8720365 L114.98799,83.8720365 L114.98799,81.0858142 L118.417007,81.0858142 L118.417007,79.8959192 L114.98799,79.8959192 L114.98799,76.4386514 L118.763487,76.4386514 L118.763487,75.2608628 L113.724069,75.2608628 L113.724069,83.8720365 Z M123.394612,83.8720365 L124.647147,83.8720365 L124.647147,76.4386514 L127.052989,76.4386514 L127.052989,75.2608628 L120.990396,75.2608628 L120.990396,76.4386514 L123.394612,76.4386514 L123.394612,83.8720365 Z M129.649152,83.8720365 L130.90006,83.8720365 L130.90006,75.2608628 L129.649152,75.2608628 L129.649152,83.8720365 Z M140.393296,83.9619705 L140.54783,83.9619705 L140.54783,75.2608628 L139.379882,75.2608628 L139.379882,79.9979596 C139.379882,80.4787602 139.464469,81.2380101 139.464469,81.2380101 C139.464469,81.2380101 139.023642,80.6309561 138.712948,80.2764089 L134.247743,75.1726584 L134.080196,75.1726584 L134.080196,83.8720365 L135.248144,83.8720365 L135.248144,79.1245628 C135.248144,78.5901477 135.163558,77.8827827 135.163558,77.8827827 C135.163558,77.8827827 135.604385,78.4777303 135.926465,78.844384 L140.393296,83.9619705 Z M150.79096,82.8844928 L150.79096,79.527536 L147.45629,79.527536 L147.45629,80.7053245 L149.636026,80.7053245 L149.636026,82.2255538 C149.183812,82.5558881 148.469705,82.7824524 147.635224,82.7824524 C145.800342,82.7824524 144.609621,81.4023125 144.609621,79.5673144 C144.609621,77.7305869 145.788955,76.3608239 147.48069,76.3608239 C148.443678,76.3608239 149.040665,76.6928877 149.504266,77.2100078 L150.350133,76.312398 C149.694586,75.5272056 148.718585,75.1588224 147.48069,75.1588224 C145.074848,75.1588224 143.322926,76.9955499 143.322926,79.5673144 C143.322926,82.1373494 145.109008,83.9844539 147.635224,83.9844539 C149.148025,83.9844539 150.267173,83.3912359 150.79096,82.8844928 Z" id="footer-logo-Fill-9" fill="#FFFFFF"></path>
            </g>
        </g>
    </g>
</svg>